<svg xmlns="http://www.w3.org/2000/svg" class="main-logo" width="398" height="164" viewBox="0 0 388 164" fill="#000000">
	<path class="second-letter left" d="M101.583 120.708V89.14h14.426V74.71h-14.426V43.216h17.657l14.426-14.43H94.671c-4.734 0-7.514 4.058-7.514 8.342v88.84c0 4.209 2.029 9.17 7.965 9.17h38.544l-14.651-14.431h-17.432v.001Z" fill="#000000"/>
	<path class="second-letter right" d="M291 28.862c6.161 0 9.317 3.081 9.317 9.395v87.486c0 6.239-3.006 9.395-9.092 9.395h-28.1c-6.237 0-9.317-3.081-9.317-9.395V38.257c0-6.239 3.005-9.395 9.092-9.395Zm-5.109 14.357h-17.732l.075 77.49h17.732l-.075-77.49Z" fill="#000000"/>
	<g class="middle-content">
		<path d="M154.704 120.708V89.14h14.426V74.71h-14.426V43.216h17.657l14.426-14.43h-38.995c-4.734 0-7.514 4.058-7.514 8.342v88.84c0 4.209 2.029 9.17 7.964 9.17h38.545l-14.651-14.431h-17.432v.001Z" fill="#000000"/>
		<path d="M231.643 28.862h-28.1c-6.087 0-9.092 3.156-9.092 9.395v87.562c0 6.238 3.005 9.32 9.091 9.32h5.26V43.216h17.732v91.921h5.109c6.161 0 9.317-3.081 9.317-9.32V38.258c-.075-6.314-3.156-9.396-9.317-9.396" fill="#000000"/>
	</g>
	<g class="left-group">
		<path d="m43.127 47.577.076 73.13H60.86l.075-26.155-2.855-2.18 10.97-7.967c1.127 1.052 1.502 1.428 3.38 3.157 2.03 1.954 2.856 4.96 2.856 8.418v29.237c0 6.54-2.78 9.771-8.34 9.846H28.702V47.577h14.426-.001Z" fill="#000000"/>
		<path d="M66.946 28.862c5.56 0 8.34 3.231 8.34 9.695v29.758c-.009 3.378-.2 5.878-4.809 9.551L47.486 94.251V78.994l13.449-9.62V43.291h-13.45v-14.43l19.461.001Z" fill="#000000"/>
		<path class="logo-brackets left" d="M28.777 0v14.43H14.35v135.14h14.426V164H0V0z" fill="#000000"/>
		<path class="logo-pixels left" d="M25.546 25.63h14.426v14.43H25.546z" fill="#000000"/>
	</g>
	<g class="right-group">
		<path d="M359.148 28.786V68.24c-.008 3.378-.2 5.878-4.809 9.551l-27.274 19.391.075 26.532-.001.34c-.062 6.413-1.9 10.344-7.512 11.01h-6.913V98.31c0-3.608.902-7.14 5.034-9.846 2.014-1.293 6.756-4.618 11.723-8.143l.746-.53 1.495-1.063.629-.448.626-.446.622-.444c4.856-3.465 9.251-6.628 10.744-7.703l.174-.126.365-.263V37.655c.526-5.562 3.006-8.793 9.317-8.793v-.076h4.959Z" fill="#000000"/>
		<path d="M352.987 84.48c1.127 1.053 1.503 1.428 3.38 3.157 2.03 1.879 2.856 4.885 2.856 8.493v20.218h-14.426l.075-21.721-2.705-2.105 10.82-8.042Z" fill="#000000"/>
		<path d="m317.598 28.862.33.003c6.731.121 8.99 4.012 9.137 10.67v30.289l4.433 3.758-10.519 7.29s-3.306-2.78-5.335-4.584c-2.103-1.88-3.005-4.81-3.005-8.418V28.862h4.959Z" fill="#000000"/>
		<path class="logo-brackets right" d="M359.223 0v14.43h14.351v135.14h-14.35V164H388V0z" fill="#000000"/>
		<path class="logo-pixels right" d="M347.953 123.94h14.426v14.43h-14.426z" fill="#000000"/>
	</g>
</svg>